<svg xmlns="http://www.w3.org/2000/svg" width="45.563" height="45.563" viewBox="0 0 45.563 45.563"><defs><style>.a{fill:#f64847;}</style></defs><path class="a" d="M26.157,7.975A18.174,18.174,0,1,1,13.3,13.3,18.106,18.106,0,0,1,26.157,7.975m0-4.6A22.782,22.782,0,1,0,48.938,26.157,22.778,22.778,0,0,0,26.157,3.375Z" transform="translate(-3.375 -3.375)"/><path class="a" d="M33.469,30.282l-3.187,3.187-8.2-8.2-8.2,8.2-3.187-3.187,8.2-8.2-8.2-8.2,3.187-3.187,8.2,8.2,8.2-8.2,3.187,3.187-8.2,8.2Z" transform="translate(0.703 0.704)"/></svg>