<svg xmlns="http://www.w3.org/2000/svg" width="44.828" height="44.833" viewBox="0 0 44.828 44.833"><defs><style>.a{fill:#0cb68b;}</style></defs><path class="a" d="M44.215,15.3l-3.467-3.467a2.093,2.093,0,0,0-2.968,0L16.811,32.806,7.058,23.044a2.093,2.093,0,0,0-2.968,0L.614,26.52a2.1,2.1,0,0,0,0,2.977L15.322,44.214a2.093,2.093,0,0,0,2.968,0L44.206,18.281A2.111,2.111,0,0,0,44.215,15.3ZM15.822,24.585a1.39,1.39,0,0,0,1.979,0L36.011,6.357a1.406,1.406,0,0,0,0-1.979L32.054.412a1.39,1.39,0,0,0-1.979,0L16.811,13.676,11.96,8.817a1.39,1.39,0,0,0-1.979,0L6.016,12.783a1.406,1.406,0,0,0,0,1.979Z" transform="translate(0.004 0.002)"/></svg>