<svg xmlns="http://www.w3.org/2000/svg" width="37.617" height="36.004" viewBox="0 0 37.617 36.004"><defs><style>.a{fill:none;stroke-linecap:round;}.b,.c{stroke:none;}.c{fill:#ff9d22;}</style></defs><g class="a" transform="translate(-1.441 0.001)"><path class="b" d="M18.232,1.252l-4.591,9.309-10.273,1.5A2.251,2.251,0,0,0,2.123,15.9L9.555,23.14,7.8,33.37a2.249,2.249,0,0,0,3.262,2.37l9.19-4.83,9.19,4.83A2.25,2.25,0,0,0,32.7,33.37L30.945,23.14,38.377,15.9a2.251,2.251,0,0,0-1.245-3.839l-10.273-1.5L22.268,1.252a2.252,2.252,0,0,0-4.036,0Z"/><path class="c" d="M 20.25 6.203025817871094 L 17.2280387878418 12.33026123046875 L 16.29808807373047 14.21578979492188 L 14.21768760681152 14.51910018920898 L 7.452388763427734 15.50540924072266 L 12.34706878662109 20.27506065368652 L 13.85400772094727 21.74349975585938 L 13.4976978302002 23.81719970703125 L 12.34128570556641 30.54752159118652 L 18.38890838623047 27.36870193481445 L 20.24999809265137 26.39044952392578 L 22.11108779907227 27.36870193481445 L 28.1587085723877 30.54751968383789 L 27.00229835510254 23.81719970703125 L 26.64598846435547 21.74349975585938 L 28.15292739868164 20.27506065368652 L 33.04760360717773 15.50541114807129 L 26.28231811523438 14.51910018920898 L 24.20191764831543 14.21578979492188 L 23.27196884155273 12.33026123046875 L 20.25 6.203025817871094 M 20.24503326416016 -0.000896453857421875 C 21.04992485046387 -0.0008087158203125 21.85538291931152 0.4193382263183594 22.26796722412109 1.251560211181641 L 26.85937881469727 10.56093978881836 L 37.13202667236328 12.05858993530273 C 38.97421646118164 12.32578086853027 39.71249771118164 14.59687042236328 38.37655639648438 15.89764976501465 L 30.94452667236328 23.13984107971191 L 32.70233917236328 33.37031173706055 C 32.95260238647461 34.83295822143555 31.78660202026367 36.00079727172852 30.48091888427734 36.00079727172852 C 30.13583374023438 36.00079727172852 29.78085327148438 35.91916275024414 29.43984794616699 35.73984146118164 L 20.24999809265137 30.90937042236328 L 11.06015777587891 35.73984146118164 C 10.7181568145752 35.92116165161133 10.36238288879395 36.00355911254883 10.01634788513184 36.00355911254883 C 8.711885452270508 36.00355911254883 7.547584533691406 34.83183288574219 7.797657012939453 33.37031173706055 L 9.55546760559082 23.13984107971191 L 2.123439788818359 15.89764976501465 C 0.7874984741210938 14.59687042236328 1.525779724121094 12.32578086853027 3.367969512939453 12.05858993530273 L 13.64062881469727 10.56093978881836 L 18.23202896118164 1.251560211181641 C 18.64560699462891 0.4138908386230469 19.44503974914551 -0.00098419189453125 20.24503326416016 -0.000896453857421875 Z"/></g></svg>