<?xml version="1.0" encoding="utf-8"?>
<!-- Generator: Adobe Illustrator 22.0.0, SVG Export Plug-In . SVG Version: 6.00 Build 0)  -->
<svg version="1.1" id="Layer_1" xmlns="http://www.w3.org/2000/svg" xmlns:xlink="http://www.w3.org/1999/xlink" x="0px" y="0px"
	 viewBox="0 0 29.3 28.1" style="enable-background:new 0 0 29.3 28.1;" xml:space="preserve">
<style type="text/css">
	.st0{fill:#FFFFFF;}
	.st1{fill:#FF9F22;}
</style>
<polyline class="st0" points="6.6,19.9 1.5,10.3 2,3.9 7.1,1.6 12.5,2.6 14.1,5.3 15.1,4.9 18.3,2 21.8,1.6 25.3,2.8 28,6.6 
	27,12.3 25.4,15.8 21,20.9 18.8,23.2 14.3,26.3 "/>
<path id="Icon_ionic-ios-heart-empty" class="st1" d="M21.4,0L21.4,0c-2.8,0-5.3,1.4-6.8,3.7C13.2,1.4,10.6,0,7.9,0H7.9
	C3.5,0,0,3.6,0,7.9c0.2,3.4,1.3,6.6,3.4,9.3c4.2,5.8,11.3,10.8,11.3,10.8s7-5.1,11.3-10.9c2-2.7,3.2-6,3.4-9.3
	C29.2,3.6,25.7,0,21.4,0z M24.3,16.1c-2.8,3.6-6.1,6.8-9.7,9.5c-3.6-2.8-6.9-6-9.7-9.5c-1.8-2.4-2.8-5.2-3-8.2C2,4.7,4.6,2,7.9,2H8
	c1,0,2,0.3,2.9,0.8c0.9,0.5,1.6,1.2,2.1,2c0.6,0.9,1.8,1.2,2.7,0.6c0.2-0.1,0.4-0.3,0.6-0.6c0.5-0.8,1.3-1.5,2.1-2
	C19.3,2.2,20.3,2,21.3,2h0.1c3.3,0,5.9,2.7,5.9,6C27.1,10.9,26.1,13.7,24.3,16.1L24.3,16.1z"/>
</svg>
