<svg width="22" height="23" xmlns="http://www.w3.org/2000/svg" xmlns:xlink="http://www.w3.org/1999/xlink" xmlns:svgjs="http://svgjs.com/svgjs" viewBox="282 76 22 23"><svg width="13" height="13" xmlns="http://www.w3.org/2000/svg" xmlns:xlink="http://www.w3.org/1999/xlink" xmlns:svgjs="http://svgjs.com/svgjs" fill="#a4b91d" x="286" y="76"><svg xmlns="http://www.w3.org/2000/svg" xmlns:xlink="http://www.w3.org/1999/xlink" width="13" height="13"><path paint-order="stroke fill markers" fill-rule="evenodd" d="M6.533 12.439c-3.318 0-6.018-2.79-6.018-6.22C.515 2.792 3.215 0 6.533 0 9.85 0 12.55 2.79 12.55 6.22c0 3.429-2.7 6.219-6.018 6.219zm0-10.038c-1.995 0-3.617 1.713-3.617 3.819s1.622 3.819 3.617 3.819c1.995 0 3.617-1.713 3.617-3.82 0-2.105-1.622-3.818-3.617-3.818z"/></svg></svg><svg width="22" height="9" xmlns="http://www.w3.org/2000/svg" xmlns:xlink="http://www.w3.org/1999/xlink" xmlns:svgjs="http://svgjs.com/svgjs" fill="#a4b91d" x="282" y="90"><svg xmlns="http://www.w3.org/2000/svg" width="22" height="9"><path paint-order="stroke fill markers" fill-rule="evenodd" d="M10.533.192C5.588.192 1.229 3.498 0 8.103h2.509c1.16-3.241 4.387-5.51 8.024-5.51 3.637 0 6.864 2.269 8.024 5.51h2.509C19.837 3.498 15.478.192 10.533.192z"/></svg></svg></svg>