<svg width="26" height="25" xmlns="http://www.w3.org/2000/svg" xmlns:xlink="http://www.w3.org/1999/xlink" xmlns:svgjs="http://svgjs.com/svgjs" viewBox="70 74 26 25"><svg width="20" height="20" xmlns="http://www.w3.org/2000/svg" xmlns:xlink="http://www.w3.org/1999/xlink" xmlns:svgjs="http://svgjs.com/svgjs" fill="#fff" x="70" y="74"><svg xmlns="http://www.w3.org/2000/svg" xmlns:xlink="http://www.w3.org/1999/xlink" width="20" height="20"><path paint-order="stroke fill markers" fill-rule="evenodd" d="M9.94 19.882C4.46 19.882 0 15.422 0 9.94 0 4.46 4.459 0 9.94 0c5.482 0 9.942 4.46 9.942 9.941 0 5.48-4.46 9.94-9.941 9.94zm0-17.481c-4.157 0-7.54 3.382-7.54 7.54 0 4.158 3.383 7.54 7.54 7.54 4.159 0 7.542-3.382 7.542-7.54 0-4.158-3.383-7.54-7.541-7.54z"/></svg></svg><svg width="9" height="8" xmlns="http://www.w3.org/2000/svg" xmlns:xlink="http://www.w3.org/1999/xlink" xmlns:svgjs="http://svgjs.com/svgjs" fill="#fff" x="87" y="91"><svg xmlns="http://www.w3.org/2000/svg" width="9" height="8"><path paint-order="stroke fill markers" fill-rule="evenodd" d="M.64 1.872L2.337.175 8.3 6.138 6.603 7.835.64 1.872z"/></svg></svg></svg>
