<svg xmlns="http://www.w3.org/2000/svg" width="46.955" height="35.216" viewBox="0 0 46.955 35.216"><defs><style>.a{fill:#0cb68b;}</style></defs><path class="a" d="M45.123,5.784H6.973a4.415,4.415,0,0,0-4.4,4.4V36.6a4.415,4.415,0,0,0,4.4,4.4H45.123a4.415,4.415,0,0,0,4.4-4.4V10.186a4.415,4.415,0,0,0-4.4-4.4ZM6.973,8.719H45.123a1.487,1.487,0,0,1,1.467,1.467v4.4H5.505v-4.4A1.487,1.487,0,0,1,6.973,8.719ZM45.123,38.065H6.973A1.487,1.487,0,0,1,5.505,36.6V23.392H46.591V36.6a1.487,1.487,0,0,1-1.467,1.467ZM8.44,29.261h2.935v5.869H8.44Zm5.869,0h2.935v5.869H14.309Zm5.869,0h2.935v5.869H20.179Z" transform="translate(-2.571 -5.784)"/></svg>