<svg xmlns="http://www.w3.org/2000/svg" xmlns:xlink="http://www.w3.org/1999/xlink" width="59.069" height="53.943" viewBox="0 0 59.069 53.943"><defs><style>.a{fill:#fff;}.b{clip-path:url(#a);}</style><clipPath id="a"><rect class="a" width="59.069" height="53.943"/></clipPath></defs><g class="b"><path class="a" d="M58.433,19.951a1.972,1.972,0,0,0-2.786.116L53.54,22.356a26.963,26.963,0,1,0-5.923,21.973A1.972,1.972,0,0,0,44.6,41.79a23.028,23.028,0,1,1,5.193-17.916l-3.737-1.626a1.972,1.972,0,1,0-1.573,3.616l6.7,2.916c.016.007.032.011.048.018s.057.021.087.032a1.909,1.909,0,0,0,.249.07l.064.014a1.951,1.951,0,0,0,.311.028l.028,0c.014,0,.027,0,.04,0a2.035,2.035,0,0,0,.342-.035l.018,0a1.958,1.958,0,0,0,.336-.106c.024-.01.048-.019.072-.03a1.965,1.965,0,0,0,.273-.146l.032-.024c.019-.013.037-.028.055-.041a1.935,1.935,0,0,0,.275-.242.04.04,0,0,0,.008-.007l5.127-5.57a1.972,1.972,0,0,0-.116-2.786" transform="translate(0 0)"/><path class="a" d="M29.041,47.605l12.4,8.763a1.972,1.972,0,0,0,2.276,0l12.4-8.763A1.973,1.973,0,0,0,56.947,46V31.967a1.928,1.928,0,0,0-.029-.319c0-.027-.009-.053-.014-.079a1.938,1.938,0,0,0-.092-.319c-.006-.017-.015-.032-.021-.049a2.023,2.023,0,0,0-.158-.3c0-.007-.007-.014-.011-.021l-.005-.007a1.954,1.954,0,0,0-.221-.271l-.052-.053a1.976,1.976,0,0,0-.229-.192l-12.4-8.763a1.97,1.97,0,0,0-2.276,0l-12.4,8.763a1.986,1.986,0,0,0-.229.193c-.018.017-.034.034-.051.052a1.965,1.965,0,0,0-.222.272l-.005.007c0,.007-.007.014-.011.021a2.023,2.023,0,0,0-.158.3c-.007.017-.015.032-.021.049a1.937,1.937,0,0,0-.092.319c-.006.026-.01.052-.014.079a1.928,1.928,0,0,0-.029.319V46a1.973,1.973,0,0,0,.834,1.61M32.15,35.631l8.455,5.584V50.95L32.15,44.974Zm12.4,15.319V41.215L53,35.631v9.343ZM42.577,25.618l8.9,6.293-8.9,5.88-8.9-5.88Z" transform="translate(-15.849 -11.93)"/></g></svg>
