<svg xmlns="http://www.w3.org/2000/svg" xmlns:xlink="http://www.w3.org/1999/xlink" width="24.038" height="21.952" viewBox="0 0 24.038 21.952"><defs><style>.a{fill:#0cb68b;}.b{clip-path:url(#a);}</style><clipPath id="a"><rect class="a" width="24.038" height="21.952"/></clipPath></defs><g class="b"><path class="a" d="M23.779,8.119a.8.8,0,0,0-1.134.047l-.858.932a10.972,10.972,0,1,0-2.41,8.942.8.8,0,0,0-1.228-1.033,9.371,9.371,0,1,1,2.113-7.291l-1.521-.662a.8.8,0,1,0-.64,1.471l2.728,1.187.02.007.035.013a.777.777,0,0,0,.1.028l.026.006a.794.794,0,0,0,.127.011h.011l.016,0a.828.828,0,0,0,.139-.014h.007a.8.8,0,0,0,.137-.043l.029-.012a.8.8,0,0,0,.111-.059l.013-.01.022-.017a.788.788,0,0,0,.112-.1l0,0,2.086-2.267a.8.8,0,0,0-.047-1.134" transform="translate(0 0)"/><path class="a" d="M28.546,31.964l5.045,3.566a.8.8,0,0,0,.926,0l5.045-3.566a.8.8,0,0,0,.339-.655v-5.7h0V25.6a.784.784,0,0,0-.012-.13c0-.011,0-.021-.006-.032a.788.788,0,0,0-.038-.13c0-.007-.006-.013-.009-.02a.823.823,0,0,0-.064-.122l0-.008,0,0a.8.8,0,0,0-.09-.11l-.021-.022a.8.8,0,0,0-.093-.078l-5.045-3.566a.8.8,0,0,0-.926,0l-5.045,3.566a.808.808,0,0,0-.093.079l-.021.021a.8.8,0,0,0-.09.111l0,0,0,.008a.823.823,0,0,0-.064.122c0,.007-.006.013-.009.02a.788.788,0,0,0-.038.13c0,.011,0,.021-.006.032a.785.785,0,0,0-.012.13v.007h0v5.7a.8.8,0,0,0,.339.655m1.265-4.873,3.441,2.272v3.962l-3.441-2.432Zm5.045,6.234V29.364L38.3,27.092v3.8Zm-.8-10.308,3.623,2.561-3.623,2.393-3.623-2.393Z" transform="translate(-23.178 -17.447)"/></g></svg>