<svg xmlns="http://www.w3.org/2000/svg" width="163.95" height="50.32" viewBox="0 0 163.95 50.32"><defs><style>.a{fill:#34363a;}.b,.d{fill:#fff;}.b{font-size:12.58px;font-family:MyriadPro-Regular, Myriad Pro;}.c{font-size:22.645px;font-family:MyriadPro-Semibold, Myriad Pro;font-weight:600;}</style></defs><rect class="a" width="163.95" height="50.32" rx="5.04"/><text class="b" transform="translate(48.258 17.192)"><tspan x="0" y="0">Download na</tspan><tspan class="c"><tspan x="0" y="21.387">App Store</tspan></tspan></text><path class="d" d="M844.518,5166.288c3.606,0,5.912,3.45,5.912,3.45a7.124,7.124,0,0,0-3.518,5.986,6.656,6.656,0,0,0,4.419,6.28s-3.488,8.182-7.4,8.182c-2.2,0-2.35-1.253-5.276-1.253-2.542,0-3.4,1.253-5.335,1.253-3.695,0-8.469-7.975-8.469-14.462,0-6.738,4.833-9.436,7.863-9.436,2.66,0,3.769,1.548,5.912,1.548C840.424,5167.836,841.843,5166.288,844.518,5166.288Zm-.621-6.87c.532,3.3-2.5,7.386-6.119,7.253C837.247,5162.47,841.149,5159.639,843.9,5159.418Z" transform="translate(-814.13 -5150.9)"/></svg>