<svg xmlns="http://www.w3.org/2000/svg" xmlns:xlink="http://www.w3.org/1999/xlink" width="233.178" height="56" viewBox="0 0 233.178 56"><defs><style>.a{fill:none;}.b{clip-path:url(#a);}.c{fill:#fff;}.d{fill:#fff;font-size:12px;font-family:HelveticaNeue-Bold, Helvetica Neue;font-weight:700;}</style><clipPath id="a"><rect class="a" width="233.178" height="51.719"/></clipPath></defs><g class="b" transform="translate(0 0)"><path class="c" d="M431.456,40.494c-.81,1.071-1.6,2.153-2.436,3.207a6.9,6.9,0,0,1-1.172,1.2,6.658,6.658,0,0,1-2.927,1.716,2.669,2.669,0,0,1-2.878-1.626c-.17-.614-.262-1.25-.446-1.86a.674.674,0,0,0-.485-.24c-.344.362-.646.762-.954,1.157a6.471,6.471,0,0,1-3.9,2.644,4.92,4.92,0,0,1-3.638-1.016c-1.488-1.01-1.974-3.02-2.2-5-.594.66-1.073,1.155-1.507,1.685a22.626,22.626,0,0,1-1.991,2.475,8.545,8.545,0,0,1-2.613,1.685,2.557,2.557,0,0,1-3.4-2.448c-.043-.607-.016-1.219-.037-1.828a.393.393,0,0,0-.151-.3.364.364,0,0,0-.325.081c-.506.535-.964,1.118-1.5,1.623a14.612,14.612,0,0,1-3.071,2.687c-1.74.88-3.4.163-3.878-2.073a27.135,27.135,0,0,1-.3-2.747,4.931,4.931,0,0,0-.675.619,12.417,12.417,0,0,1-4,3.979,2.882,2.882,0,0,1-3.168.115,3.274,3.274,0,0,1-1.152-2.481,12.253,12.253,0,0,1,.027-1.529.594.594,0,0,0-.167-.447c-.089-.054-.347.036-.442.14a35.045,35.045,0,0,0-2.407,2.7,4.451,4.451,0,0,1-4.6,1.816,2.317,2.317,0,0,1-1.46-1.962c-.047-.768-.249-1.531-.246-2.3a8,8,0,0,1,.361-1.589c.118-.541.171-1.1.324-1.63.288-1,.575-2,.955-2.959.872-2.208,1.8-4.392,2.7-6.591a3.77,3.77,0,0,0,.128-.7c-.177,0-.326-.005-.473,0-.822.032-1.645.117-2.464.089-1.037-.036-1.115.847-1.37,1.426-.651,1.481-1.089,3.055-1.753,4.531a39.488,39.488,0,0,1-2.066,3.8,14.861,14.861,0,0,1-3.293,4.106c-.164.135-.288.338-.472.426a9.915,9.915,0,0,1-1.036.367c.019-.465-.306-.924.14-1.4a29.029,29.029,0,0,0,3.077-3.5,25.4,25.4,0,0,0,2.062-4.113c.671-1.536,1.251-3.112,1.832-4.684a2.707,2.707,0,0,0,.27-1.467c-.1-.365-.648-.611-1-.912-1.058-.914-1.784-3.832-.384-5.023a2.363,2.363,0,0,1,3.329.152,4.325,4.325,0,0,1,.581,1.921,9.017,9.017,0,0,1-.05,1.668c-.05,1.267.261,1.115,1.217,1.111a4.75,4.75,0,0,0,2.159-.636c1.6-.882,2.509-.547,3.86.4a2.274,2.274,0,0,1,.669,1.518,5.572,5.572,0,0,1-.523,3.414,30.981,30.981,0,0,0-1.188,3.043c-.223.527-.59.993-.862,1.5-.576,1.079-1.172,2.15-1.687,3.257-.6,1.281-1.129,2.592-1.646,3.906a.721.721,0,0,0,.192.669.828.828,0,0,0,.758.053,13.535,13.535,0,0,0,2.054-1.836,33.2,33.2,0,0,0,2.313-3.2c.811-1.244,1.588-2.513,2.29-3.819.518-.963.9-2,1.327-3.01a29.64,29.64,0,0,0,1.144-2.793,9.306,9.306,0,0,0,.406-2.426c.028-.86.653-1.016,1.21-1.056a2.874,2.874,0,0,1,2.494.7,3.25,3.25,0,0,1,.847,3.308c-.513,1.7-1.127,3.377-1.787,5.029a27.572,27.572,0,0,1-1.355,2.565c-.5.942-1.015,1.876-1.474,2.837a25.065,25.065,0,0,0-1.139,2.722c-.106.312.086.722.141,1.087.439-.121,1.02-.108,1.291-.388a25.093,25.093,0,0,0,2.856-3.322c1.152-1.708,2.127-3.534,3.155-5.322a17.674,17.674,0,0,0,1.232-2.371c.639-1.647,1.2-3.325,1.758-5,.15-.449.02-1.118.3-1.37,1.05-.93,3.274-.194,3.851,1.069.826,1.81.132,3.411-.537,5.016-.622,1.495-1.323,2.959-2.028,4.418-.826,1.709-1.712,3.389-2.533,5.1a3.71,3.71,0,0,0-.406,1.5c0,.237.436.658.7.675a1.471,1.471,0,0,0,1.027-.454c.59-.638,1.088-1.359,1.621-2.049.34-.44.713-.862,1.008-1.331q1.2-1.912,2.342-3.862a25.012,25.012,0,0,0,1.219-2.322c.456-1.01.838-2.053,1.257-3.08.561-1.376,1.145-2.742,1.684-4.126.591-1.517,1.159-3.044,1.681-4.586.052-.154-.266-.619-.432-.629a24.024,24.024,0,0,0-7.363.559,2.558,2.558,0,0,0-1.914,2.168.72.72,0,0,1-.462.5.755.755,0,0,1-.9-.428,3.928,3.928,0,0,1-.2-3.477,3.749,3.749,0,0,1,3.477-2.243c1.99-.186,4-.185,6-.212.81-.011,1.625.174,2.433.151a1.216,1.216,0,0,0,.8-.588,9.671,9.671,0,0,0,1.006-3.852c.024-.2.411-.415.673-.515,1.053-.4,3-.05,3.546.876a5.623,5.623,0,0,1,.374,2.381,6.712,6.712,0,0,1-.2,1.241c-.1.743.223,1.012,1.026.97,1.11-.058,2.236.022,3.329-.138,1.559-.229,3.1-.6,4.633-.966a1.307,1.307,0,0,0,.68-.637c.333-.606.752-.788,1.34-.39a1.033,1.033,0,0,1,.284,1.686,5.441,5.441,0,0,1-2.821,1.482c-1.7.375-3.405.727-5.121,1.012a21.132,21.132,0,0,1-2.922.227,1.871,1.871,0,0,0-2.066,1.369,23.261,23.261,0,0,1-1.157,2.292c-.217.49-.251,1.058-.447,1.561-.3.78-.665,1.538-1.018,2.3-.374.807-.778,1.6-1.147,2.411-.61,1.337-1.22,2.674-1.8,4.023-.881,2.047-1.769,4.093-2.584,6.166a6.558,6.558,0,0,0-.277,1.869c-.016.206.091.555.231.609a.856.856,0,0,0,.735-.1,11.1,11.1,0,0,0,1.662-1.685,46.257,46.257,0,0,0,2.606-3.926,43.15,43.15,0,0,0,2.464-4.738,13.439,13.439,0,0,1,4.992-6.278,7.441,7.441,0,0,1,6.143-1.1,2.519,2.519,0,0,1,1.535,3.7c-.4.53-1.4.713-1.737.2-.26-.395-.136-1.048-.149-1.587a2.681,2.681,0,0,1,.132-.618c-.274-.042-.637-.215-.808-.1-.655.428-1.25.945-1.862,1.436a5.957,5.957,0,0,0-1.694,2.283c-.415.92-1.033,1.748-1.495,2.65-.406.794-.667,1.664-1.087,2.45a9.663,9.663,0,0,0-.818,4.2,7.763,7.763,0,0,0,.483,2.68,1.28,1.28,0,0,0,.994.7,2.151,2.151,0,0,0,1.4-.626,23.187,23.187,0,0,0,2.3-3.118c.882-1.462,1.643-3,2.424-4.518.92-1.792,1.9-3.564,2.674-5.417a30.253,30.253,0,0,0,.988-3.7.81.81,0,0,1,.439-.518,4.625,4.625,0,0,1,1.723-.252,2.964,2.964,0,0,1,2.307,4.073c-.947,2.446-2.022,4.846-3.12,7.231-.73,1.586-1.609,3.1-2.387,4.669a3.49,3.49,0,0,0-.311,1.211c-.023.237.078.634.238.7a.977.977,0,0,0,.852-.066,16.576,16.576,0,0,0,2.083-2.026,40.974,40.974,0,0,0,2.692-3.669c.784-1.217,1.431-2.52,2.126-3.792.523-.956,1.021-1.926,1.542-2.882a14.688,14.688,0,0,0,1.19-2.209,2.458,2.458,0,0,0-.293-1.451c-.835-2.11-.029-4.7,2.318-5.131a3.984,3.984,0,0,1,1.865.289c.612.2.83,1.584.477,2.266a14.83,14.83,0,0,0-.892,1.978,1.224,1.224,0,0,0,.179.865,62.364,62.364,0,0,1,3.245,5.761c.524,1.211.406,2.692.592,4.049a2.582,2.582,0,0,0,.219.566c.16-.085.376-.13.471-.261.862-1.179,1.7-2.375,2.551-3.563a5.805,5.805,0,0,1,.862-1.123c.2-.169.608-.1.921-.139.018.409.2.911.027,1.21a42.436,42.436,0,0,1-2.55,3.955,38.317,38.317,0,0,1-3.1,3.691,13.837,13.837,0,0,1-6.339,3.945,3.719,3.719,0,0,1-3.712-.651,5.843,5.843,0,0,1-1.195-2.818,9.74,9.74,0,0,1,.107-2.511l-.209-.088m.457-.654.129.1c.143-.1.281-.2.428-.29a12.378,12.378,0,0,1,1.544-.905c.719-.3,1.776.047,1.929.648.091.355.023,1.018-.189,1.125a2.863,2.863,0,0,1-1.624.255c-.4-.061-.634-.166-.835.27a3.477,3.477,0,0,0,.112,3.312,1.7,1.7,0,0,0,2.052.649,6.016,6.016,0,0,0,2.792-3.122c.911-1.968.64-4.1.368-6.152a19.486,19.486,0,0,0-1.2-3.78,1.551,1.551,0,0,0-.535-.585c-.042-.033-.3.1-.364.209-.583,1.074-1.138,2.163-1.714,3.24-.362.675-.739,1.343-1.122,2.007-.583,1.009-1.177,2.011-1.767,3.016" transform="translate(-215.355 -8.269)"/><path class="c" d="M169.749,26.988c.2-.829.419-1.653.581-2.488.334-1.721.624-3.449.955-5.171.189-.981.365-1.971.651-2.927.349-1.169.8-2.308,1.22-3.457.184-.508.4-1.005.578-1.515a.328.328,0,0,0-.111-.3.362.362,0,0,0-.331.067c-.638.661-1.279,1.322-1.885,2.013-.8.907-1.568,1.834-2.334,2.765-.729.887-1.442,1.787-2.153,2.688-.517.654-1.039,1.306-1.523,1.983-.535.748-1.014,1.535-1.547,2.284a12.028,12.028,0,0,0-1.44,1.967,5.363,5.363,0,0,1-1.328,1.666c-.739.739-.275,1.609-.011,2.281a17.273,17.273,0,0,1,1.022,6.3,9.879,9.879,0,0,1-.979,4.391c-.912,1.9-2.151,3.715-4.506,4.168-1.913.368-4.052-.292-4.045-2.839a12.117,12.117,0,0,1,.49-3.052,11.213,11.213,0,0,1,1.651-4.136c.332-.434.46-1.014.755-1.482a2.326,2.326,0,0,0,.045-2.312c-.57-1.353-1.062-2.74-1.684-4.068a18.663,18.663,0,0,0-1.474-2.4.622.622,0,0,0-.535-.044c-.637,1.154-1.236,2.33-1.854,3.5a4.433,4.433,0,0,1-.372.509c-1.625,2.224-3.116,4.56-4.919,6.632a25.065,25.065,0,0,1-4.587,3.912,16.235,16.235,0,0,1-4.027,1.962c-2.255.773-4.633,1.347-6.994.656-3.107-.909-5.415-2.807-6.251-6.056a8.249,8.249,0,0,1-.37-3.044c.224-1.664.266-3.406,1.266-4.9.67-1,1.189-2.107,1.9-3.075a8.445,8.445,0,0,1,2.969-2.6,16.633,16.633,0,0,1,4.216-1.44,25.522,25.522,0,0,1,4.683-.282,6.186,6.186,0,0,1,2.11.481.961.961,0,0,1,.341.866c-.057.245-.431.494-.718.6a45.856,45.856,0,0,0-4.437,1.542,7.061,7.061,0,0,0-2.147,1.949,13.258,13.258,0,0,0-1.933,2.85,9.516,9.516,0,0,0-.741,3.057,11.144,11.144,0,0,0,.154,3.028,4.861,4.861,0,0,0,7.089,3.737,19.823,19.823,0,0,0,4.174-2.53,21.172,21.172,0,0,0,4.447-4.977c.626-1.095,1.457-2.073,2.122-3.148.51-.824.9-1.723,1.356-2.579.264-.492.588-.953.84-1.45.167-.329.165-.771.391-1.034.87-1.016-.059-1.827-.3-2.674a23.842,23.842,0,0,0-1.089-2.171,49.431,49.431,0,0,1-1.87-4.984,13.133,13.133,0,0,1-.274-3.247,11.669,11.669,0,0,1,.143-2.484,8.235,8.235,0,0,1,1.789-3.842A5.9,5.9,0,0,1,153.187.009a2.987,2.987,0,0,1,3.074,2.569,20.736,20.736,0,0,1,.433,3.546,19.365,19.365,0,0,1-.564,3.467c-.282,1.382-.616,2.754-.933,4.128a4.306,4.306,0,0,0-.307,1.334,6.432,6.432,0,0,0,.583,2.049c.638,1.286,1.42,2.5,2.082,3.777.585,1.125,1.084,2.293,1.631,3.438a2.976,2.976,0,0,0,.454.748c.057.062.415-.017.5-.131.987-1.294,1.932-2.619,2.918-3.913,1.731-2.272,3.453-4.551,5.237-6.781.977-1.221,2.058-2.363,3.121-3.515,1.553-1.683,3.11-3.365,4.706-5.008a55.143,55.143,0,0,1,4.032-3.92C181.846.38,183.938.44,186.011.651a3.028,3.028,0,0,1,.636.044c.387.13,1.021.257,1.073.49a1.726,1.726,0,0,1-.354,1.28c-1.184,1.481-2.494,2.865-3.644,4.37a20.44,20.44,0,0,0-1.477,2.674c-.513.937-1.088,1.844-1.538,2.809-.506,1.086-.921,2.215-1.344,3.337a30.806,30.806,0,0,0-1.2,3.436c-.419,1.7-.689,3.433-1.013,5.155-.269,1.429-.567,2.856-.775,4.294-.244,1.682-.444,3.372-.591,5.065a31.12,31.12,0,0,0-.142,3.945,27.409,27.409,0,0,0,.488,4.8,42.365,42.365,0,0,0,1.555,4.465A3.672,3.672,0,0,0,179.3,48.96c.631.353,1.341.567,2,.867.229.1.584.271.6.434.026.292-.084.794-.275.871a8.662,8.662,0,0,1-2.107.549,8,8,0,0,1-4.392-1.029,9.86,9.86,0,0,1-2.8-2.637,7.835,7.835,0,0,1-1.344-2.263,27.463,27.463,0,0,1-1.128-3.763,22.1,22.1,0,0,1-.591-3.738c-.089-1.655-.025-3.321.035-4.98s.183-3.31.308-4.962a9.7,9.7,0,0,1,.27-1.287l-.136-.033" transform="translate(-72.257 0)"/><path class="c" d="M32.432,53.222A11,11,0,0,1,27.8,51.7a8.751,8.751,0,0,1-2.98-3.332,8.911,8.911,0,0,1-.882-5.236c.277-2.259.639-4.515,1.111-6.741a31.877,31.877,0,0,1,1.3-4.019c.61-1.712,1.249-3.414,1.9-5.11.459-1.19.967-2.362,1.449-3.544.272-.667-.2-.968-.689-1.106-1.117-.315-2.263-.527-3.39-.809-.579-.145-1.134-.392-1.717-.507a.807.807,0,0,0-.624.336c-1.445,2.129-2.794,4.326-4.316,6.4a23.19,23.19,0,0,1-3.5,3.936,12.363,12.363,0,0,1-5.034,2.848,29.87,29.87,0,0,1-3.8.2,5.438,5.438,0,0,1-3.307-1.1,5.816,5.816,0,0,1-2.321-2.776,11.118,11.118,0,0,1-.3-8.519c.508-1.423,1.086-2.826,1.728-4.194a4.875,4.875,0,0,1,1.124-1.255,11.523,11.523,0,0,1,5.89-3.2,8.008,8.008,0,0,1,6.02.741,4.146,4.146,0,0,1,1.756,2.374,1.226,1.226,0,0,0,1.156.947,17.019,17.019,0,0,1,3.071.792c.938.322,1.406.12,1.946-.916.637-1.223,1.367-2.4,2.006-3.62.585-1.116,1.063-2.289,1.664-3.4a15.513,15.513,0,0,1,1.528-2.321c.9-1.115,1.851-2.189,2.835-3.229a7.659,7.659,0,0,1,4.156-2.184,6.746,6.746,0,0,1,2.855.021,2.692,2.692,0,0,1,1.946,2.7,18.826,18.826,0,0,1-.175,3.487,36.726,36.726,0,0,1-.884,3.717c-.354,1.35-.7,2.705-1.129,4.03-.454,1.391-.964,2.768-1.535,4.116-.447,1.054-.109,1.631,1.2,1.71.989.06,1.985.089,2.975.051a1.792,1.792,0,0,0,1-.434c.432-.366.935-.746,1.289-.17.215.351.137,1.285-.12,1.434a6.517,6.517,0,0,1-2.672.963,22.856,22.856,0,0,1-3.755-.292c-.944-.092-1.245.151-1.553,1.06-.389,1.146-.869,2.26-1.284,3.4-.454,1.245-.882,2.5-1.316,3.752-.479,1.381-1,2.751-1.414,4.15a15.7,15.7,0,0,0-.62,2.966,33.688,33.688,0,0,0-.218,4.915,17.116,17.116,0,0,0,.772,3.655A3.782,3.782,0,0,0,33.1,51.032a18.094,18.094,0,0,0,2.486.464c.256.062.447.389.667.595-.22.214-.412.567-.666.619-1.116.23-2.25.372-3.16.512M5.738,28.646l.132.005c.048.42.1.84.143,1.26.189,1.7,2.1,3.429,3.619,3.189a7.984,7.984,0,0,0,4.517-2.249c1.141-1.154,2.143-2.441,3.211-3.667a36.409,36.409,0,0,0,4.093-5.945c.285-.5.125-.646-.36-.744-.941-.19-1.885-.372-2.81-.626-.838-.23-1.168-.106-1.432.68a.927.927,0,0,1-.189.311,5.965,5.965,0,0,1-3.347,1.984,2.982,2.982,0,0,1-2.548-.891,2.848,2.848,0,0,1,.8-3.13,6.945,6.945,0,0,1,3.465-1.373c.112-.011.3-.364.287-.377-.593-.538-.956-1.365-1.939-1.41a5.387,5.387,0,0,0-5.022,2.594,32.783,32.783,0,0,0-1.55,3.128A14.45,14.45,0,0,0,5.757,26.2a18.4,18.4,0,0,0-.019,2.447m24.013-7.633c.673-.12,1.131-.087,1.361-.935.417-1.537,1.148-2.988,1.635-4.51.608-1.9,1.149-3.822,1.629-5.756a20.7,20.7,0,0,0,.5-3.352c.023-.283-.336-.662-.615-.874a.786.786,0,0,0-.733.136A32.864,32.864,0,0,0,30.568,8.94,41.428,41.428,0,0,0,28.136,12.9c-1.078,1.849-2.144,3.705-3.167,5.584-.179.328-.637.873.06,1.147a14.944,14.944,0,0,0,2.053.532c.5.119,1.025.182,1.519.333a9.59,9.59,0,0,1,1.15.515" transform="translate(0 -1.793)"/><path class="c" d="M317.015,35.316c.974,0,1.951.052,2.92-.014,1.148-.078,2.295-.222,3.431-.4a9.928,9.928,0,0,0,2.261-.58c.434-.182.727-.675,1.111-1,.231-.193.553-.489.766-.441a1.23,1.23,0,0,1,.817.638c.362,1.153.113,1.555-1,2.1a16.106,16.106,0,0,1-5.559,1.537c-2.2.213-4.411.3-6.618.415a2.069,2.069,0,0,0-1.611,1.738,10.073,10.073,0,0,1-.6,1.726c-.33.741-.761,1.438-1.081,2.182s-.532,1.522-.827,2.272c-.395,1-.883,1.974-1.22,2.994-.414,1.252-.744,2.535-1.05,3.818a10.177,10.177,0,0,1-.508,2.517c-.245.44-1.149.666-1.778.711a2.829,2.829,0,0,1-1.73-.489,2.954,2.954,0,0,1-1.024-2.234c-.2-1.585.394-2.968.658-4.427a21.37,21.37,0,0,1,.935-2.855c.362-1.089.7-2.185,1.076-3.27s.781-2.172,1.164-3.26a10.4,10.4,0,0,0,.342-1.155c.014-.064-.177-.253-.261-.246-1.548.133-3.107.213-4.636.465a6.386,6.386,0,0,0-2.4.913c-.467.3-.664,1.009-.992,1.527-.135.214-.328.6-.442.579a1.421,1.421,0,0,1-.816-.44c-.68-.816-.351-1.706-.212-2.633.339-2.265,2.064-2.835,3.888-3.263a21.762,21.762,0,0,1,3.567-.525,26.02,26.02,0,0,1,2.627.188c.7.028,1.031-.384,1.238-1.037.357-1.127.831-2.216,1.227-3.331.213-.6.383-1.218.542-1.835.228-.891.449-1.786.634-2.687a15.188,15.188,0,0,0,.56-3.31c-.024-1,.674-1.027,1.182-1.12a6.684,6.684,0,0,1,2.191.062c1.821.288,2.526,1.338,2.214,3.121-.131.749-.153,1.517-.305,2.261-.247,1.209-.543,2.41-.851,3.606-.216.84-.489,1.665-.735,2.5a9.548,9.548,0,0,1-.541,1.761c-.342.65.023.749.491.814a7.07,7.07,0,0,0,.959.009c0,.034,0,.068,0,.1" transform="translate(-175.872 -12.506)"/><path class="c" d="M293.661,19.9a4.811,4.811,0,0,1-3.677-1.2,3.985,3.985,0,0,1-1.611-3.537,21.2,21.2,0,0,1,.539-3.47A12.253,12.253,0,0,1,290.1,9.142c1.294-2.363,3.479-3.719,5.83-4.827a6.877,6.877,0,0,1,2.365-.529,30.656,30.656,0,0,1,4.453-.123c1.689.116,3.364.448,5.04.717,1.924.309,3.846.633,5.762.987.816.151,1.609.424,2.424.586,1.606.317,3.218.608,4.831.885,1.256.215,2.517.416,3.782.576a11.824,11.824,0,0,0,2.312.129c1.176-.085,2.347-.272,3.512-.461A3.623,3.623,0,0,0,333.441,4.9a1.079,1.079,0,0,0,.1-.5c-.062-.6.349-.695.737-.56a14.481,14.481,0,0,1,2.775,1.151c1.432.867,1.821,2.792,1.077,4.644a3.692,3.692,0,0,1-3.1,2.157,15.919,15.919,0,0,1-6.424-.5c-2.214-.463-4.443-.866-6.654-1.341-2.3-.494-4.58-1.058-6.874-1.565-2.071-.457-4.142-.92-6.227-1.307-2.459-.457-4.924-.916-7.406-1.224A6.585,6.585,0,0,0,295.482,8.2a4.263,4.263,0,0,0-1.067,3.615,4.2,4.2,0,0,0,2.982,3.3,12.97,12.97,0,0,0,1.953.272c.147.027.385.326.352.426a3.984,3.984,0,0,1-1.923,2.377c-.923.5-1.809,1.07-2.755,1.517a4.6,4.6,0,0,1-1.361.192" transform="translate(-170.222 -2.156)"/><path class="c" d="M96.612,71.318c.077-.19.228-.63.434-1.043a6.112,6.112,0,0,1,.912-1.576,1.831,1.831,0,0,1,1.272-.418,2.835,2.835,0,0,1,2.194,1.842c.417,1.036-.424,1.653-.647,2.468a2.676,2.676,0,0,1-.475,1.061,1.238,1.238,0,0,1-.924.418c-1.363-.242-2.725-.6-2.766-2.752" transform="translate(-57.032 -40.63)"/></g><text class="d" transform="translate(160 53)"><tspan x="0" y="0">Desde 1996</tspan></text></svg>
