<svg xmlns="http://www.w3.org/2000/svg" xmlns:xlink="http://www.w3.org/1999/xlink" width="163.95" height="50.32" viewBox="0 0 163.95 50.32"><defs><style>.a{fill:none;}.b{clip-path:url(#a);}.c{fill:#34363a;}.d{fill:#fff;}</style><clipPath id="a"><rect class="a" width="163.95" height="50.32" transform="translate(0 0)"/></clipPath></defs><g class="b"><path class="c" d="M5.04,0H158.91a5.04,5.04,0,0,1,5.04,5.04V45.28a5.041,5.041,0,0,1-5.04,5.04H5.04A5.04,5.04,0,0,1,0,45.28V5.04A5.039,5.039,0,0,1,5.04,0"/><path class="d" d="M49.213,8.831a15.625,15.625,0,0,1,2.326-.176,4.852,4.852,0,0,1,3.433,1.056,3.906,3.906,0,0,1,1.194,3.043,4.482,4.482,0,0,1-1.219,3.294A5.217,5.217,0,0,1,51.2,17.267a17.638,17.638,0,0,1-1.987-.1Zm1.094,7.494a6.956,6.956,0,0,0,1.106.062,3.257,3.257,0,0,0,3.609-3.595c.013-2-1.119-3.27-3.432-3.27a6.2,6.2,0,0,0-1.283.114Z"/><path class="d" d="M63.111,14.1a2.974,2.974,0,0,1-3.03,3.231A2.893,2.893,0,0,1,57.164,14.2a2.971,2.971,0,0,1,3.018-3.231A2.881,2.881,0,0,1,63.111,14.1m-4.828.062c0,1.333.767,2.339,1.848,2.339,1.057,0,1.849-.993,1.849-2.364,0-1.031-.516-2.338-1.823-2.338s-1.874,1.207-1.874,2.363"/><path class="d" d="M64.862,11.106l.805,3.094c.175.678.339,1.307.452,1.935h.038c.139-.615.34-1.269.541-1.923l.993-3.106h.93l.943,3.043c.227.729.4,1.371.541,1.986h.038a18.2,18.2,0,0,1,.465-1.973l.867-3.056h1.1l-1.962,6.086H69.6l-.93-2.9a20.3,20.3,0,0,1-.541-2h-.025a17.991,17.991,0,0,1-.554,2.011l-.98,2.892H65.566L63.73,11.106Z"/><path class="d" d="M73.681,12.753c0-.629-.013-1.144-.05-1.647h.98l.063,1.005H74.7a2.238,2.238,0,0,1,2.012-1.143c.843,0,2.15.5,2.15,2.59v3.633H77.755V13.684c0-.981-.365-1.8-1.408-1.8a1.625,1.625,0,0,0-1.56,1.646v3.659H73.681Z"/><rect class="d" width="1.106" height="8.927" transform="translate(80.663 8.265)"/><path class="d" d="M89.138,14.1a2.974,2.974,0,0,1-3.03,3.231A2.893,2.893,0,0,1,83.191,14.2a2.971,2.971,0,0,1,3.017-3.231,2.882,2.882,0,0,1,2.93,3.131m-4.827.062c0,1.333.767,2.339,1.849,2.339,1.055,0,1.847-.993,1.847-2.364,0-1.031-.514-2.338-1.823-2.338s-1.873,1.207-1.873,2.363"/><path class="d" d="M93.908,17.191l-.089-.766h-.037a2.269,2.269,0,0,1-1.861.905,1.734,1.734,0,0,1-1.861-1.748c0-1.471,1.308-2.275,3.659-2.264v-.125a1.254,1.254,0,0,0-1.383-1.408,3.037,3.037,0,0,0-1.584.452l-.252-.729a3.785,3.785,0,0,1,2-.54c1.86,0,2.313,1.269,2.313,2.489v2.275a8.508,8.508,0,0,0,.1,1.459Zm-.164-3.1c-1.207-.025-2.577.188-2.577,1.37a.979.979,0,0,0,1.043,1.057,1.514,1.514,0,0,0,1.472-1.019,1.175,1.175,0,0,0,.062-.352Z"/><path class="d" d="M101.857,8.266v7.355c0,.54.013,1.156.05,1.571h-.993l-.05-1.056h-.025a2.251,2.251,0,0,1-2.074,1.195c-1.472,0-2.6-1.245-2.6-3.094-.012-2.023,1.245-3.268,2.729-3.268a2.037,2.037,0,0,1,1.836.93h.025V8.266Zm-1.106,5.318a1.946,1.946,0,0,0-.051-.466,1.627,1.627,0,0,0-1.6-1.282c-1.144,0-1.824,1.006-1.824,2.352,0,1.232.6,2.25,1.8,2.25a1.664,1.664,0,0,0,1.622-1.32,1.91,1.91,0,0,0,.051-.478Z"/><path class="d" d="M106.364,12.753c0-.629-.013-1.144-.051-1.647h.981l.063,1.005h.025a2.235,2.235,0,0,1,2.011-1.143c.843,0,2.151.5,2.151,2.59v3.633h-1.107V13.684c0-.981-.364-1.8-1.408-1.8a1.625,1.625,0,0,0-1.559,1.646v3.659h-1.106Z"/><path class="d" d="M116.716,17.191l-.089-.766h-.037a2.269,2.269,0,0,1-1.861.905,1.734,1.734,0,0,1-1.861-1.748c0-1.471,1.308-2.275,3.659-2.264v-.125a1.254,1.254,0,0,0-1.383-1.408,3.037,3.037,0,0,0-1.584.452l-.252-.729a3.785,3.785,0,0,1,2-.54c1.86,0,2.313,1.269,2.313,2.489v2.275a8.509,8.509,0,0,0,.1,1.459Zm-.164-3.1c-1.207-.025-2.577.188-2.577,1.37a.979.979,0,0,0,1.043,1.057,1.514,1.514,0,0,0,1.472-1.019,1.175,1.175,0,0,0,.062-.352Z"/><path class="d" d="M52.922,34.253l-1.313,4.326H48.733l4.892-15.262H57.18l4.959,15.262h-2.99l-1.38-4.326Zm4.371-2.1-1.2-3.759c-.295-.928-.544-1.97-.77-2.853h-.046c-.226.883-.452,1.947-.724,2.853l-1.177,3.759Z"/><path class="d" d="M64.042,31.22c0-1.449-.046-2.627-.091-3.668H66.4l.136,1.7h.045A4.293,4.293,0,0,1,70.359,27.3C72.895,27.3,75,29.477,75,32.918c0,3.985-2.513,5.91-5.027,5.91a3.622,3.622,0,0,1-3.1-1.472h-.045v5.707H64.042Zm2.785,2.74a2.871,2.871,0,0,0,.09.77,2.519,2.519,0,0,0,2.446,1.947c1.766,0,2.808-1.472,2.808-3.646,0-1.947-.951-3.532-2.74-3.532A2.6,2.6,0,0,0,66.94,31.56a2.517,2.517,0,0,0-.113.7Z"/><path class="d" d="M77.289,31.22c0-1.449-.046-2.627-.091-3.668h2.446l.136,1.7h.045A4.293,4.293,0,0,1,83.607,27.3c2.536,0,4.641,2.174,4.641,5.615,0,3.985-2.512,5.91-5.026,5.91a3.623,3.623,0,0,1-3.1-1.472h-.045v5.707H77.289Zm2.785,2.74a2.871,2.871,0,0,0,.09.77,2.519,2.519,0,0,0,2.446,1.947c1.766,0,2.808-1.472,2.808-3.646,0-1.947-.951-3.532-2.74-3.532a2.6,2.6,0,0,0-2.491,2.061,2.517,2.517,0,0,0-.113.7Z"/><path class="d" d="M95.268,35.545a7.712,7.712,0,0,0,3.691.974c1.789,0,2.786-.838,2.786-2.083,0-1.156-.77-1.835-2.717-2.537-2.514-.906-4.122-2.242-4.122-4.438,0-2.491,2.084-4.393,5.389-4.393a8.062,8.062,0,0,1,3.668.77l-.678,2.241a6.471,6.471,0,0,0-3.035-.724c-1.766,0-2.536.951-2.536,1.835,0,1.176.883,1.72,2.921,2.512,2.65,1,3.941,2.333,3.941,4.53,0,2.445-1.858,4.574-5.8,4.574a9.068,9.068,0,0,1-4.122-.951Z"/><path class="d" d="M110.078,24.4v3.147h2.648v2.083h-2.648V34.5c0,1.336.362,2.038,1.426,2.038a4.115,4.115,0,0,0,1.087-.136l.046,2.129a6.148,6.148,0,0,1-2.016.271,3.219,3.219,0,0,1-2.4-.906,4.391,4.391,0,0,1-.861-3.079V29.634h-1.585V27.551h1.585V25.06Z"/><path class="d" d="M125.182,32.964a5.463,5.463,0,0,1-5.661,5.864A5.332,5.332,0,0,1,114,33.144,5.443,5.443,0,0,1,119.7,27.3a5.291,5.291,0,0,1,5.48,5.661m-8.31.112c0,2.129,1.041,3.736,2.739,3.736,1.585,0,2.7-1.562,2.7-3.781,0-1.721-.771-3.69-2.673-3.69-1.97,0-2.762,1.9-2.762,3.735"/><path class="d" d="M127.47,31.106c0-1.494-.023-2.559-.091-3.555H129.8l.091,2.106h.09a3.289,3.289,0,0,1,3.011-2.355,2.95,2.95,0,0,1,.658.068V30a3.9,3.9,0,0,0-.816-.091,2.455,2.455,0,0,0-2.491,2.106,4.806,4.806,0,0,0-.09.861v5.706H127.47Z"/><path class="d" d="M137.3,33.846c.069,1.992,1.631,2.853,3.4,2.853a8.282,8.282,0,0,0,3.056-.5l.408,1.925a10.412,10.412,0,0,1-3.85.679c-3.577,0-5.684-2.2-5.684-5.57,0-3.058,1.858-5.933,5.39-5.933,3.578,0,4.755,2.944,4.755,5.367a6.9,6.9,0,0,1-.09,1.177Zm4.847-1.947a2.372,2.372,0,0,0-2.287-2.695A2.726,2.726,0,0,0,137.3,31.9Z"/><path class="d" d="M30.388,15.388c3.606,0,5.912,3.45,5.912,3.45a7.123,7.123,0,0,0-3.518,5.986A6.653,6.653,0,0,0,37.2,31.1s-3.488,8.183-7.4,8.183c-2.2,0-2.35-1.253-5.276-1.253-2.542,0-3.4,1.253-5.335,1.253-3.7,0-8.469-7.976-8.469-14.462,0-6.738,4.833-9.436,7.863-9.436,2.66,0,3.769,1.548,5.912,1.548,1.8,0,3.217-1.548,5.892-1.548m-.621-6.87c.532,3.3-2.5,7.386-6.119,7.253-.531-4.2,3.371-7.032,6.122-7.253Z"/></g></svg>