<svg xmlns="http://www.w3.org/2000/svg" width="47.722" height="49.172" viewBox="0 0 47.722 49.172"><defs><style>.a,.b{fill:#0cb68b;}.b{font-size:28px;font-family:ArialRoundedMTBold, Arial Rounded MT Bold;}</style></defs><path class="a" d="M46.836,11.069a2.635,2.635,0,0,0-3.535,0l-7.65,6.483a5.1,5.1,0,0,1-3.316,1.228h-9.8a1.406,1.406,0,0,1,0-2.807h6.483a2.809,2.809,0,0,0,.14-5.614H15.9a9.38,9.38,0,0,0-6.132,2.307L5.921,15.973h-4.6A1.37,1.37,0,0,0,0,17.376V25.8a1.37,1.37,0,0,0,1.325,1.4H30.879A5.137,5.137,0,0,0,34.2,25.973L46.722,15.359a2.915,2.915,0,0,0,.114-4.29Z" transform="translate(0 21.971)"/><text class="b" transform="translate(11.138 26)"><tspan x="0" y="0">€</tspan></text></svg>