<svg width="31" height="21" xmlns="http://www.w3.org/2000/svg" xmlns:xlink="http://www.w3.org/1999/xlink" xmlns:svgjs="http://svgjs.com/svgjs" viewBox="20 370 31 21"><svg width="15" height="7" xmlns="http://www.w3.org/2000/svg" xmlns:xlink="http://www.w3.org/1999/xlink" xmlns:svgjs="http://svgjs.com/svgjs" fill="#e2a63b" x="36" y="384"><svg xmlns="http://www.w3.org/2000/svg" xmlns:xlink="http://www.w3.org/1999/xlink" width="15" height="7"><path paint-order="stroke fill markers" fill-rule="evenodd" d="M14.34.927V4.38c0 1.174-3.128 2.151-6.974 2.151-3.845 0-6.908-.945-6.908-2.118v-.391L.392 1.285h.033c.521 1.01 3.389 1.793 6.843 1.793 3.455 0 7.007-.978 7.007-2.151h.066z"/></svg></svg><svg width="15" height="6" xmlns="http://www.w3.org/2000/svg" xmlns:xlink="http://www.w3.org/1999/xlink" xmlns:svgjs="http://svgjs.com/svgjs" fill="#f4b844" x="29" y="372"><svg xmlns="http://www.w3.org/2000/svg" xmlns:xlink="http://www.w3.org/1999/xlink" width="15" height="6"><path paint-order="stroke fill markers" fill-rule="evenodd" d="M14.171.086V3.51h-.065c0 1.205-3.226 2.15-7.04 2.15a16.725 16.725 0 0 1-4.4-.489l-.064.066A7.612 7.612 0 0 0 .19 3.9v-.066L.093.217C.32 1.325 3.35 2.205 7.033 2.205c3.684 0 7.073-.945 7.073-2.119h.065z"/></svg></svg><svg width="15" height="5" xmlns="http://www.w3.org/2000/svg" xmlns:xlink="http://www.w3.org/1999/xlink" xmlns:svgjs="http://svgjs.com/svgjs" fill="#fedb41" x="29" y="370"><svg xmlns="http://www.w3.org/2000/svg" xmlns:xlink="http://www.w3.org/1999/xlink" width="15" height="5"><path paint-order="stroke fill markers" fill-rule="evenodd" d="M14.171 2.152c0 1.173-3.226 2.118-7.072 2.118S.353 3.39.125 2.283c0-.034-.032-.098-.032-.131C.093.979 3.22.001 7.099.001c3.878-.033 7.072.945 7.072 2.151z"/></svg></svg><svg width="15" height="7" xmlns="http://www.w3.org/2000/svg" xmlns:xlink="http://www.w3.org/1999/xlink" xmlns:svgjs="http://svgjs.com/svgjs" fill="#f4b844" x="36" y="381"><svg xmlns="http://www.w3.org/2000/svg" xmlns:xlink="http://www.w3.org/1999/xlink" width="15" height="7"><path paint-order="stroke fill markers" fill-rule="evenodd" d="M.425 4.285l-.033-.717L.327.635c.228 1.108 3.26 1.988 6.941 1.988 3.683 0 6.942-.945 7.04-2.086h.033v3.39h-.066c0 1.173-3.16 2.15-7.007 2.15-3.845 0-6.322-.782-6.843-1.792z"/></svg></svg><svg width="6" height="5" xmlns="http://www.w3.org/2000/svg" xmlns:xlink="http://www.w3.org/1999/xlink" xmlns:svgjs="http://svgjs.com/svgjs" fill="#e2a63b" x="31" y="384"><svg xmlns="http://www.w3.org/2000/svg" xmlns:xlink="http://www.w3.org/1999/xlink" width="6" height="5"><path paint-order="stroke fill markers" fill-rule="evenodd" d="M.765 3.469c.88-.815 1.564-1.858 1.922-2.998h.163c.717.065 1.434.097 2.216.097h.326v.717l.065 2.738H5.1a16.89 16.89 0 0 1-4.237-.457L.765 3.47z"/></svg></svg><svg width="4" height="5" xmlns="http://www.w3.org/2000/svg" xmlns:xlink="http://www.w3.org/1999/xlink" xmlns:svgjs="http://svgjs.com/svgjs" fill="#f4b844" x="33" y="380"><svg xmlns="http://www.w3.org/2000/svg" xmlns:xlink="http://www.w3.org/1999/xlink" width="4" height="5"><path paint-order="stroke fill markers" fill-rule="evenodd" d="M3.425 1.374v.163l.065 3.031h-.326c-.814 0-1.564-.032-2.28-.097H.72A6.624 6.624 0 0 0 .883.95h.163a21.88 21.88 0 0 0 2.118.098l.293.163c-.032.065-.032.13-.032.162z"/></svg></svg><svg width="13" height="7" xmlns="http://www.w3.org/2000/svg" xmlns:xlink="http://www.w3.org/1999/xlink" xmlns:svgjs="http://svgjs.com/svgjs" fill="#e2a63b" x="31" y="375"><svg xmlns="http://www.w3.org/2000/svg" xmlns:xlink="http://www.w3.org/1999/xlink" width="13" height="7"><path paint-order="stroke fill markers" fill-rule="evenodd" d="M.667 2.17c1.434.359 2.933.522 4.4.49 3.813 0 7.039-.946 7.039-2.151h.065v3.845c-3.553 0-6.453.847-6.811 1.923l-.293-.163c-.717 0-1.402-.033-2.053-.098H2.85A6.583 6.583 0 0 0 .6 2.203l.066-.033z"/></svg></svg><svg width="31" height="15" xmlns="http://www.w3.org/2000/svg" xmlns:xlink="http://www.w3.org/1999/xlink" xmlns:svgjs="http://svgjs.com/svgjs" viewBox="20 375 31 15" x="20" y="375"><svg width="15" height="15" xmlns="http://www.w3.org/2000/svg" xmlns:xlink="http://www.w3.org/1999/xlink" xmlns:svgjs="http://svgjs.com/svgjs" fill="#fedb41" x="20" y="375"><svg xmlns="http://www.w3.org/2000/svg" xmlns:xlink="http://www.w3.org/1999/xlink" width="15" height="15"><path paint-order="stroke fill markers" fill-rule="evenodd" d="M13.915 6.016a7.136 7.136 0 0 0-2.313-3.878A6.194 6.194 0 0 0 9.125.769 6.302 6.302 0 0 0 7.072.443 6.996 6.996 0 0 0 0 7.385a6.996 6.996 0 0 0 6.941 7.072 7.149 7.149 0 0 0 4.824-1.858 7.076 7.076 0 0 0 1.955-3.096 6.493 6.493 0 0 0 .326-2.086c0-.456-.13-.945-.13-1.4z"/></svg></svg><svg width="15" height="5" xmlns="http://www.w3.org/2000/svg" xmlns:xlink="http://www.w3.org/1999/xlink" xmlns:svgjs="http://svgjs.com/svgjs" fill="#fedb41" x="36" y="379"><svg xmlns="http://www.w3.org/2000/svg" xmlns:xlink="http://www.w3.org/1999/xlink" width="15" height="5"><path paint-order="stroke fill markers" fill-rule="evenodd" d="M14.308 2.472v.065c-.098 1.14-3.26 2.086-7.04 2.086-3.78 0-6.713-.88-6.94-1.988v-.163c0-.065 0-.13.032-.195C.718 1.2 3.619.354 7.17.354h.098c3.846 0 7.04.945 7.04 2.118z"/></svg></svg></svg><svg width="9" height="10" xmlns="http://www.w3.org/2000/svg" xmlns:xlink="http://www.w3.org/1999/xlink" xmlns:svgjs="http://svgjs.com/svgjs" fill="#e2a63b" x="22" y="377"><svg xmlns="http://www.w3.org/2000/svg" width="9" height="10"><path paint-order="stroke fill markers" fill-rule="evenodd" d="M8.168 8.742a.665.665 0 0 0-.847-.392 3.128 3.128 0 0 1-3.357-.716 1.45 1.45 0 0 1-.391-.49h3.129a.653.653 0 0 0 .651-.65.654.654 0 0 0-.651-.653H3.084c-.033-.228-.033-.424-.033-.652h3.976a.654.654 0 0 0 .652-.652.654.654 0 0 0-.652-.651H3.442c.163-.261.326-.49.522-.685.88-.88 2.183-1.14 3.357-.716a.662.662 0 0 0 .847-.359.65.65 0 0 0-.391-.847 4.457 4.457 0 0 0-4.726 1.01 4.677 4.677 0 0 0-1.043 1.597h-.847a.654.654 0 0 0-.652.651c0 .359.294.652.652.652h.587c0 .228 0 .424.032.652h-.62a.654.654 0 0 0-.65.652c0 .359.293.652.65.652h.946c.196.554.522 1.043.945 1.434a4.457 4.457 0 0 0 4.726 1.01.665.665 0 0 0 .39-.847z"/></svg></svg></svg>