<svg xmlns="http://www.w3.org/2000/svg" xmlns:xlink="http://www.w3.org/1999/xlink" width="90.897" height="83.009" viewBox="0 0 90.897 83.009"><defs><style>.a{fill:#0cb68b;}.b{clip-path:url(#a);}</style><clipPath id="a"><rect class="a" width="90.897" height="83.009"/></clipPath></defs><g class="b"><path class="a" d="M89.918,30.7a3.035,3.035,0,0,0-4.287.178L82.388,34.4a41.491,41.491,0,1,0-9.115,33.813,3.034,3.034,0,0,0-4.643-3.907,35.436,35.436,0,1,1,7.991-27.57l-5.751-2.5A3.034,3.034,0,1,0,68.45,39.8l10.315,4.487c.024.011.05.018.074.027.044.018.088.033.133.049a2.937,2.937,0,0,0,.383.107c.033.007.065.016.1.022a3,3,0,0,0,.479.043c.014,0,.028,0,.042,0s.041-.006.062-.006a3.133,3.133,0,0,0,.526-.053l.028,0a3.012,3.012,0,0,0,.518-.162c.037-.015.074-.029.111-.046a3.023,3.023,0,0,0,.419-.225c.017-.011.032-.026.049-.037s.057-.042.085-.063a2.978,2.978,0,0,0,.423-.372.061.061,0,0,0,.012-.011L90.1,34.988a3.035,3.035,0,0,0-.178-4.287" transform="translate(0 0)"/><path class="a" d="M29.49,61.816,48.569,75.3a3.034,3.034,0,0,0,3.5,0L71.149,61.816a3.036,3.036,0,0,0,1.283-2.478V37.751a2.966,2.966,0,0,0-.045-.491c-.007-.041-.013-.081-.022-.121a2.981,2.981,0,0,0-.142-.49c-.009-.026-.023-.05-.033-.076a3.113,3.113,0,0,0-.243-.463c-.007-.01-.01-.022-.017-.032l-.008-.01a3.008,3.008,0,0,0-.34-.417c-.027-.028-.053-.055-.08-.082a3.038,3.038,0,0,0-.352-.3L52.07,21.789a3.032,3.032,0,0,0-3.5,0L29.49,35.273a3.056,3.056,0,0,0-.353.3c-.027.026-.053.053-.078.08a3.024,3.024,0,0,0-.342.418l-.008.01c-.007.01-.01.022-.017.032a3.114,3.114,0,0,0-.243.463c-.01.026-.024.05-.033.076a2.981,2.981,0,0,0-.142.49c-.009.04-.016.08-.022.121a2.966,2.966,0,0,0-.045.491V59.338a3.036,3.036,0,0,0,1.283,2.478M34.275,43.39l13.011,8.592V66.963l-13.011-9.2ZM53.353,66.963V51.982L66.364,43.39V57.767ZM50.319,27.982l13.7,9.684-13.7,9.048-13.7-9.048Z" transform="translate(-9.19 -6.917)"/></g></svg>