<svg xmlns="http://www.w3.org/2000/svg" width="111.257" height="34.99" viewBox="0 0 111.257 34.99"><defs><style>.a{fill:#fff;}</style></defs><path class="a" d="M14.006,12.465v3.744h8.949a7.938,7.938,0,0,1-2.039,4.718,9.163,9.163,0,0,1-6.91,2.74,9.822,9.822,0,0,1-9.817-9.954,9.822,9.822,0,0,1,9.817-9.954,9.516,9.516,0,0,1,6.742,2.679L23.381,3.8A12.927,12.927,0,0,0,14.006,0,13.889,13.889,0,0,0,.11,13.7a13.889,13.889,0,0,0,13.9,13.7,12.554,12.554,0,0,0,9.558-3.835,12.39,12.39,0,0,0,3.242-8.751,12.03,12.03,0,0,0-.2-2.344Z" transform="translate(-0.11)"/><path class="a" d="M28.043,6.19a8.714,8.714,0,0,0-8.873,8.843,8.873,8.873,0,0,0,17.746,0A8.714,8.714,0,0,0,28.043,6.19Zm0,14.2a5.114,5.114,0,0,1-4.992-5.357,5,5,0,1,1,9.984,0A5.114,5.114,0,0,1,28.043,20.39Z" transform="translate(9.839 3.231)"/><path class="a" d="M58.059,8.169h-.137A6.129,6.129,0,0,0,53.264,6.19,8.6,8.6,0,0,0,45,15.033c0,4.962,3.851,8.843,8.264,8.843a6.039,6.039,0,0,0,4.657-2.009h.137V23.1c0,3.379-1.811,5.19-4.718,5.19a4.9,4.9,0,0,1-4.459-3.151l-3.379,1.4a8.423,8.423,0,0,0,7.838,5.22c4.551,0,8.4-2.679,8.4-9.208V6.647H58.059ZM53.6,20.39c-2.679,0-4.718-2.283-4.718-5.357,0-3.12,2.039-5.357,4.718-5.357,2.648,0,4.718,2.283,4.718,5.388C58.333,18.153,56.247,20.39,53.6,20.39Z" transform="translate(23.322 3.231)"/><path class="a" d="M41.043,6.19a8.714,8.714,0,0,0-8.873,8.843,8.873,8.873,0,0,0,17.746,0A8.714,8.714,0,0,0,41.043,6.19Zm0,14.2a5.114,5.114,0,0,1-4.992-5.357,5,5,0,1,1,9.984,0A5.114,5.114,0,0,1,41.043,20.39Z" transform="translate(16.625 3.231)"/><path class="a" d="M58,.24h3.82V26.981H58Z" transform="translate(30.108 0.125)"/><path class="a" d="M71.267,20.39a4.5,4.5,0,0,1-4.292-2.679L78.8,12.826l-.4-1C77.674,9.843,75.422,6.19,70.84,6.19c-4.551,0-8.34,3.577-8.34,8.843a8.644,8.644,0,0,0,8.767,8.843,8.822,8.822,0,0,0,7.366-3.912L75.62,17.955a5.063,5.063,0,0,1-4.353,2.435ZM70.993,9.508a3.5,3.5,0,0,1,3.348,1.948l-7.99,3.3C66.351,11.045,68.984,9.508,70.993,9.508Z" transform="translate(32.457 3.231)"/></svg>