<svg xmlns="http://www.w3.org/2000/svg" xmlns:xlink="http://www.w3.org/1999/xlink" width="163.95" height="50.32" viewBox="0 0 163.95 50.32"><defs><style>.a{fill:#34363a;}.b,.c{fill:#fff;}.c{font-size:12.58px;font-family:MyriadPro-Regular, Myriad Pro;}.d{fill:url(#a);}.e{fill:url(#b);}.f{fill:url(#c);}.g{fill:url(#d);}</style><linearGradient id="a" x1="0.638" y1="0.836" x2="0.323" y2="0.042" gradientUnits="objectBoundingBox"><stop offset="0" stop-color="#fcd08f"/><stop offset="1" stop-color="#f79673"/></linearGradient><linearGradient id="b" x1="0.873" y1="0.135" x2="0.136" y2="1.164" gradientUnits="objectBoundingBox"><stop offset="0" stop-color="#e74047"/><stop offset="1" stop-color="#7f50a0"/></linearGradient><linearGradient id="c" x1="0.877" y1="0.855" x2="0.128" y2="-0.16" gradientUnits="objectBoundingBox"><stop offset="0" stop-color="#e6ffab"/><stop offset="1" stop-color="#47bebc"/></linearGradient><linearGradient id="d" x1="0.5" y1="1" x2="0.5" gradientUnits="objectBoundingBox"><stop offset="0" stop-color="#84e9db"/><stop offset="1" stop-color="#197491"/></linearGradient></defs><rect class="a" width="163.95" height="50.32" rx="5.04"/><path class="b" d="M1078.095,5194.188c0-3.659,5.742-3.664,5.742-3.664a2.263,2.263,0,0,1-.614-1.34,1.984,1.984,0,0,1,.151-.76,1.615,1.615,0,0,1-.432.053,3.459,3.459,0,0,1-3.749-3.245,4.309,4.309,0,0,1,4.461-4.048h4.955l-1.272.749-1.27.043a3.454,3.454,0,0,1,1.336,2.85,3.569,3.569,0,0,1-1.423,2.764c-.742.7-.754.952-.754,1.263s.2.655,1.25,1.372a3.683,3.683,0,0,1,1.767,3.083c0,2.819-3.523,3.921-5.581,3.921S1078.095,5196.4,1078.095,5194.188Zm1.89-.472c0,2.33,2.957,2.6,3.652,2.6s3.1-.193,3.1-2.266c0-1.446-1.163-1.9-2.215-2.828a4.924,4.924,0,0,0-.736-.058C1083.395,5191.169,1079.985,5191.387,1079.985,5193.716Zm1.067-9.463c0,1.349,1.2,3.582,2.7,3.582s1.793-1.172,1.793-2.04c0-2.49-1.422-3.856-2.618-3.856S1081.052,5182.9,1081.052,5184.253Zm49.893,10.389.314-.882a1.891,1.891,0,0,0,.848.158c.562,0,1.538-1.294,1.538-1.294l.709-1.685-3.809-10.068h1.26l3.219,8.539,3.087-8.539h1.261s-3.35,11.551-3.784,12.58-2.23,1.525-3.5,1.525A2.633,2.633,0,0,1,1130.945,5194.643Zm-23.1.068v-13.839h1.261v1.258a3.437,3.437,0,0,1,2.95-1.322c2.129,0,4.435,1.429,4.435,5.066s-1.922,5.223-4.406,5.223c-2.438,0-2.94-1.354-2.979-1.418v5.032Zm1.261-10.064v2.516c.039.063.734,3.023,2.773,3.023,2.069,0,3.459-1.854,3.459-4.234s-1.508-4.2-3.312-4.2C1110.042,5181.749,1109.145,5184.593,1109.105,5184.646Zm-68.114-.667a7.577,7.577,0,0,1,7.9-7.427c4.1,0,5.744,1.659,5.744,1.659l-1.641,1.539-.759.2.471-.77a5.385,5.385,0,0,0-4.041-1.9,5.475,5.475,0,0,0-5.559,5.889,7.147,7.147,0,0,0,7.016,7.1,5.37,5.37,0,0,0,2.44-.546v-3.035a18.547,18.547,0,0,0-3.016.183l1.546-.971h5.044s-1.5.536-1.5,1.739v2.45a22.811,22.811,0,0,1-5.991,1.032C1043.187,5191.124,1040.992,5187.137,1040.992,5183.979Zm79.773,4.178c0-1.72,1.527-3.511,4.736-3.511h2.523v-1.259s-.193-1.7-2.943-1.7-2.689,1.907-2.689,1.907l-1.213,0s.108-2.793,3.932-2.793,4.174,2.58,4.174,2.58v7.548h-1.261v-1.257a6.43,6.43,0,0,1-3.947,1.418C1121.726,5191.1,1120.765,5189.876,1120.765,5188.157Zm1.2.087c0,1.323,1.006,1.9,2.217,1.9s3.844-1,3.844-2.979V5185.9H1125.5C1123.58,5185.9,1121.962,5186.922,1121.962,5188.245Zm-4.032,2.695V5177.1h1.26v13.839Zm-24.361-5.2a4.735,4.735,0,0,1,4.835-4.936,3.544,3.544,0,0,1,3.7,2.662l-4.943,1.971-1.66.085c.433,2.565,2.494,4.245,4.295,4.245a5.765,5.765,0,0,0,2.569-.715,4.44,4.44,0,0,1-3.7,1.883A4.887,4.887,0,0,1,1093.57,5185.743Zm1.851-1.212a5.979,5.979,0,0,0,.082.989,37.119,37.119,0,0,0,4.34-1.986,1.82,1.82,0,0,0-2.026-1.949A2.665,2.665,0,0,0,1095.42,5184.531Zm-27.759,1.516a5.126,5.126,0,0,1,5.311-5.2,4.854,4.854,0,0,1,5.095,5c0,2.975-2.233,5.087-5.42,5.087A4.959,4.959,0,0,1,1067.662,5186.047Zm1.972-1.337c0,1.875,1.14,5.583,3.556,5.583s2.753-2.458,2.753-3.449c0-2.878-1.453-5.345-3.556-5.345A2.976,2.976,0,0,0,1069.634,5184.71Zm-13.369,1.334a5.128,5.128,0,0,1,5.314-5.2,4.856,4.856,0,0,1,5.1,5c0,2.977-2.234,5.089-5.422,5.089A4.962,4.962,0,0,1,1056.264,5186.044Zm1.973-1.338c0,1.877,1.141,5.586,3.557,5.586s2.755-2.458,2.755-3.451c0-2.88-1.453-5.348-3.557-5.348A2.977,2.977,0,0,0,1058.238,5184.706Zm30.688,6.229s1.255-.777,1.261-1.257V5177.1h-1.261l.847-1.274,2.937.016c-.725.385-1.243.723-1.261,2.516s0,10.064,0,10.064c0,.684.9,1.687,1.443,1.687a2.025,2.025,0,0,1,.716.1l-.9.734Z" transform="translate(-993.08 -5150.68)"/><text class="c" transform="translate(48.762 18.45)"><tspan x="0" y="0">Download na</tspan></text><g transform="translate(-18.985 -37.667)"><path class="d" d="M51.292,67.619l6.721-3.563c.76-.4,1.556-1.431,0-2.252l-6.725-3.553-4.814,4.7Z"/><path class="e" d="M46.473,62.95l-15.4,15.027a2.148,2.148,0,0,0,1.247-.3L51.292,67.619Z"/><path class="f" d="M46.473,62.95l4.814-4.7L32.321,48.23a1.876,1.876,0,0,0-1.258-.208Z"/><path class="g" d="M46.473,62.95,31.063,48.022A1.566,1.566,0,0,0,29.9,49.765V76.186c0,1.01.41,1.72,1.169,1.791Z"/></g></svg>