<svg xmlns="http://www.w3.org/2000/svg" xmlns:xlink="http://www.w3.org/1999/xlink" width="163.95" height="50.32" viewBox="0 0 163.95 50.32"><defs><style>.a{fill:none;}.b{clip-path:url(#a);}.c{clip-path:url(#b);}.d{fill:#34363a;}.e{fill:#fff;}.f{clip-path:url(#c);}.g{fill:url(#d);}.h{clip-path:url(#e);}.i{fill:url(#f);}.j{clip-path:url(#g);}.k{fill:url(#h);}.l{clip-path:url(#i);}.m{fill:url(#j);}.n{opacity:0.2;}.n,.p,.s{isolation:isolate;}.o{clip-path:url(#l);}.p{opacity:0.12;}.q{clip-path:url(#m);}.r{clip-path:url(#n);}.s{opacity:0.25;}.t{clip-path:url(#o);}</style><clipPath id="a"><rect class="a" width="163.95" height="50.32"/></clipPath><clipPath id="b"><rect class="a" width="163.95" height="50.32" transform="translate(0 0)"/></clipPath><clipPath id="c"><path class="a" d="M14.336,9.774a2.36,2.36,0,0,0-.544,1.654V37.462a2.357,2.357,0,0,0,.544,1.654l.087.084L29.007,24.617v-.344L14.423,9.689Z"/></clipPath><linearGradient id="d" x1="-0.177" y1="1.313" x2="-0.145" y2="1.313" gradientUnits="objectBoundingBox"><stop offset="0" stop-color="#00a0ff"/><stop offset="0.007" stop-color="#00a1ff"/><stop offset="0.26" stop-color="#00beff"/><stop offset="0.512" stop-color="#00d2ff"/><stop offset="0.76" stop-color="#00dfff"/><stop offset="1" stop-color="#00e3ff"/></linearGradient><clipPath id="e"><path class="a" d="M29.007,24.273v.344l4.861,4.863.111-.062,5.76-3.273c1.644-.935,1.644-2.464,0-3.4l-5.76-3.273-.11-.062Z"/></clipPath><linearGradient id="f" x1="-2.344" y1="3.07" x2="-2.263" y2="3.07" gradientUnits="objectBoundingBox"><stop offset="0" stop-color="#ffe000"/><stop offset="0.409" stop-color="#ffbd00"/><stop offset="0.775" stop-color="orange"/><stop offset="1" stop-color="#ff9c00"/></linearGradient><clipPath id="g"><path class="a" d="M14.336,39.116a1.918,1.918,0,0,0,2.446.073l17.2-9.772-4.972-4.972Z"/></clipPath><linearGradient id="h" x1="-0.477" y1="1.239" x2="-0.437" y2="1.239" gradientUnits="objectBoundingBox"><stop offset="0" stop-color="#ff3a44"/><stop offset="1" stop-color="#c31162"/></linearGradient><clipPath id="i"><path class="a" d="M14.336,9.774,29.007,24.445l4.972-4.973L16.782,9.7a2.727,2.727,0,0,0-1.319-.4,1.506,1.506,0,0,0-1.127.468"/></clipPath><linearGradient id="j" x1="-0.482" y1="1.864" x2="-0.442" y2="1.864" gradientUnits="objectBoundingBox"><stop offset="0" stop-color="#32a071"/><stop offset="0.068" stop-color="#2da771"/><stop offset="0.476" stop-color="#15cf74"/><stop offset="0.801" stop-color="#06e775"/><stop offset="1" stop-color="#00f076"/></linearGradient><clipPath id="l"><rect class="a" width="19.642" height="10.276" transform="translate(14.336 29.308)"/></clipPath><clipPath id="m"><rect class="a" width="0.632" height="1.826" transform="translate(13.792 37.291)"/></clipPath><clipPath id="n"><rect class="a" width="7.103" height="4.972" transform="translate(33.869 24.446)"/></clipPath><clipPath id="o"><rect class="a" width="27.181" height="15.139" transform="translate(13.792 9.306)"/></clipPath></defs><g class="b"><g class="c"><path class="d" d="M5.04,0H158.91a5.04,5.04,0,0,1,5.04,5.04V45.28a5.041,5.041,0,0,1-5.04,5.04H5.04A5.04,5.04,0,0,1,0,45.28V5.04A5.039,5.039,0,0,1,5.04,0"/><path class="e" d="M50.83,9.872A15.625,15.625,0,0,1,53.156,9.7a4.852,4.852,0,0,1,3.433,1.056A3.906,3.906,0,0,1,57.783,13.8a4.482,4.482,0,0,1-1.219,3.294,5.217,5.217,0,0,1-3.747,1.219,17.638,17.638,0,0,1-1.987-.1Zm1.094,7.494a6.955,6.955,0,0,0,1.106.062,3.257,3.257,0,0,0,3.609-3.595c.013-2-1.119-3.27-3.432-3.27a6.2,6.2,0,0,0-1.283.114Z"/><path class="e" d="M64.727,15.141a2.974,2.974,0,0,1-3.03,3.231,2.893,2.893,0,0,1-2.917-3.131A2.971,2.971,0,0,1,61.8,12.01a2.881,2.881,0,0,1,2.929,3.131M59.9,15.2c0,1.333.767,2.339,1.848,2.339,1.057,0,1.849-.993,1.849-2.364,0-1.031-.516-2.338-1.823-2.338S59.9,14.047,59.9,15.2"/><path class="e" d="M66.479,12.148l.805,3.094c.175.678.339,1.307.452,1.935h.038c.139-.615.34-1.269.541-1.923l.993-3.106h.93l.943,3.043c.227.729.4,1.371.541,1.986h.038a18.206,18.206,0,0,1,.465-1.973l.867-3.056h1.095l-1.962,6.086H71.219l-.93-2.9a20.3,20.3,0,0,1-.541-2h-.025a17.989,17.989,0,0,1-.554,2.011l-.98,2.892H67.183l-1.836-6.086Z"/><path class="e" d="M75.3,13.8c0-.629-.013-1.144-.05-1.647h.98l.063,1.005h.025a2.238,2.238,0,0,1,2.012-1.143c.843,0,2.15.5,2.15,2.59v3.633H79.372V14.726c0-.981-.365-1.8-1.408-1.8a1.625,1.625,0,0,0-1.56,1.646v3.659H75.3Z"/><rect class="e" width="1.106" height="8.927" transform="translate(82.28 9.307)"/><path class="e" d="M90.755,15.141a2.974,2.974,0,0,1-3.03,3.231,2.893,2.893,0,0,1-2.917-3.131,2.971,2.971,0,0,1,3.017-3.231,2.882,2.882,0,0,1,2.93,3.131m-4.828.062c0,1.333.768,2.339,1.849,2.339,1.055,0,1.848-.993,1.848-2.364,0-1.031-.515-2.338-1.823-2.338s-1.874,1.207-1.874,2.363"/><path class="e" d="M95.524,18.233l-.089-.766H95.4a2.269,2.269,0,0,1-1.861.905,1.734,1.734,0,0,1-1.861-1.748c0-1.471,1.308-2.275,3.659-2.264v-.125a1.254,1.254,0,0,0-1.383-1.408,3.037,3.037,0,0,0-1.584.452l-.252-.729a3.785,3.785,0,0,1,2-.54c1.86,0,2.313,1.269,2.313,2.489v2.275a8.509,8.509,0,0,0,.1,1.459Zm-.164-3.1c-1.207-.025-2.577.188-2.577,1.37a.979.979,0,0,0,1.043,1.057A1.514,1.514,0,0,0,95.3,16.536a1.175,1.175,0,0,0,.062-.352Z"/><path class="e" d="M103.473,9.307v7.355c0,.54.013,1.156.05,1.571h-.993l-.05-1.056h-.025a2.251,2.251,0,0,1-2.074,1.195c-1.472,0-2.6-1.245-2.6-3.094-.012-2.023,1.245-3.268,2.729-3.268a2.037,2.037,0,0,1,1.836.93h.025V9.307Zm-1.106,5.318a1.946,1.946,0,0,0-.051-.466,1.627,1.627,0,0,0-1.6-1.282c-1.144,0-1.824,1.006-1.824,2.352,0,1.232.6,2.25,1.8,2.25a1.664,1.664,0,0,0,1.622-1.32,1.911,1.911,0,0,0,.051-.478Z"/><path class="e" d="M107.98,13.8c0-.629-.013-1.144-.051-1.647h.981l.063,1.005H109a2.235,2.235,0,0,1,2.011-1.143c.843,0,2.151.5,2.151,2.59v3.633h-1.107V14.726c0-.981-.364-1.8-1.408-1.8a1.625,1.625,0,0,0-1.559,1.646v3.659H107.98Z"/><path class="e" d="M118.332,18.233l-.089-.766h-.037a2.269,2.269,0,0,1-1.861.905,1.734,1.734,0,0,1-1.861-1.748c0-1.471,1.308-2.275,3.659-2.264v-.125a1.254,1.254,0,0,0-1.383-1.408,3.037,3.037,0,0,0-1.584.452l-.252-.729a3.785,3.785,0,0,1,2-.54c1.86,0,2.313,1.269,2.313,2.489v2.275a8.509,8.509,0,0,0,.1,1.459Zm-.164-3.1c-1.207-.025-2.577.188-2.577,1.37a.979.979,0,0,0,1.043,1.057,1.514,1.514,0,0,0,1.472-1.019,1.175,1.175,0,0,0,.062-.352Z"/><path class="e" d="M82.258,26.506a5.007,5.007,0,1,0,5.026,5.007,4.935,4.935,0,0,0-5.026-5.007m0,8.041a3.042,3.042,0,1,1,2.826-3.034,2.9,2.9,0,0,1-2.826,3.034M71.295,26.506a5.007,5.007,0,1,0,5.025,5.007,4.934,4.934,0,0,0-5.025-5.007m0,8.041a3.042,3.042,0,1,1,2.826-3.034,2.9,2.9,0,0,1-2.826,3.034M58.253,28.042v2.124h5.083a4.436,4.436,0,0,1-1.157,2.674A5.206,5.206,0,0,1,58.253,34.4a5.652,5.652,0,0,1,0-11.3,5.418,5.418,0,0,1,3.831,1.517l1.5-1.5a7.41,7.41,0,0,0-5.33-2.143,7.776,7.776,0,1,0,0,15.551,7.106,7.106,0,0,0,5.424-2.181,7.015,7.015,0,0,0,1.84-4.969,6.909,6.909,0,0,0-.114-1.327Zm53.335,1.649a4.654,4.654,0,0,0-4.286-3.185,4.758,4.758,0,0,0-4.722,5.007,4.9,4.9,0,0,0,4.969,5.006,4.982,4.982,0,0,0,4.172-2.219l-1.707-1.138a2.858,2.858,0,0,1-2.465,1.385,2.548,2.548,0,0,1-2.428-1.518l6.694-2.768Zm-6.827,1.669a2.746,2.746,0,0,1,2.617-2.92,1.938,1.938,0,0,1,1.858,1.062Zm-5.443,4.856h2.2V21.5h-2.2Zm-3.6-8.591h-.076A3.47,3.47,0,0,0,93,26.506a5.011,5.011,0,0,0,0,10.013,3.414,3.414,0,0,0,2.636-1.138h.076V36.1c0,1.916-1.025,2.939-2.674,2.939a2.769,2.769,0,0,1-2.522-1.782l-1.915.8a4.768,4.768,0,0,0,4.437,2.959c2.579,0,4.76-1.518,4.76-5.215V26.81H95.715Zm-2.523,6.922a3.045,3.045,0,0,1,0-6.068,2.821,2.821,0,0,1,2.674,3.052,2.8,2.8,0,0,1-2.674,3.016m28.7-13.047h-5.264V36.216h2.2V30.64h3.068a4.577,4.577,0,1,0,0-9.14m.056,7.092h-3.124V23.548h3.124a2.523,2.523,0,1,1,0,5.044m13.574-2.113a4.127,4.127,0,0,0-3.919,2.252l1.951.815a2.079,2.079,0,0,1,2.007-1.079,2.114,2.114,0,0,1,2.309,1.892v.153a4.842,4.842,0,0,0-2.29-.569c-2.1,0-4.241,1.156-4.241,3.314a3.4,3.4,0,0,0,3.654,3.237,3.1,3.1,0,0,0,2.8-1.439h.075v1.136h2.121V30.549c0-2.612-1.95-4.07-4.469-4.07m-.264,8.065c-.72,0-1.723-.359-1.723-1.25,0-1.136,1.249-1.571,2.328-1.571a3.922,3.922,0,0,1,2.007.492,2.662,2.662,0,0,1-2.612,2.329M147.716,26.8l-2.518,6.38h-.076L142.51,26.8h-2.366l3.918,8.917-2.234,4.96h2.291L150.158,26.8Zm-19.784,9.415h2.2V21.5h-2.2Z"/></g><g class="f"><rect class="g" width="31.626" height="31.626" transform="translate(-0.964 24.445) rotate(-45)"/></g><g class="h"><rect class="i" width="12.376" height="10.069" transform="translate(29.007 19.411)"/></g><g class="j"><rect class="k" width="24.719" height="24.719" transform="translate(6.678 32.103) rotate(-45)"/></g><g class="l"><rect class="m" width="24.595" height="24.595" transform="translate(6.766 16.876) rotate(-45)"/></g><g class="c"><g class="n"><g class="o"><path d="M33.869,29.308,16.783,39.016a1.959,1.959,0,0,1-2.359.013l-.088.088.087.085h0a1.96,1.96,0,0,0,2.359-.012l17.195-9.772Z"/></g></g><g class="p"><g class="q"><path d="M14.336,38.944a2.358,2.358,0,0,1-.545-1.653v.172a2.358,2.358,0,0,0,.545,1.653l.087-.088Z"/></g></g><g class="p"><g class="r"><path d="M39.738,25.973l-5.869,3.335.109.109,5.76-3.272a2.066,2.066,0,0,0,1.234-1.7,2.192,2.192,0,0,1-1.234,1.527"/></g></g><g class="s"><g class="t"><path class="e" d="M16.783,9.875,39.739,22.918a2.189,2.189,0,0,1,1.233,1.528,2.064,2.064,0,0,0-1.233-1.7L16.783,9.7c-1.646-.934-2.991-.158-2.991,1.726V11.6c0-1.884,1.345-2.661,2.991-1.726"/></g></g></g></g></svg>