<svg xmlns="http://www.w3.org/2000/svg" width="43.594" height="43.594" viewBox="0 0 43.594 43.594"><defs><style>.a{fill:#fff;}</style></defs><path class="a" d="M31.784,26.124c-.547-.272-3.21-1.575-3.706-1.755s-.859-.272-1.222.272-1.4,1.751-1.715,2.111-.634.381-1.173.136a14.742,14.742,0,0,1-4.365-2.7,16.48,16.48,0,0,1-3.015-3.76c-.316-.545-.035-.845.236-1.117.247-.245.547-.627.819-.95a4.6,4.6,0,0,0,.539-.9,1,1,0,0,0-.045-.952c-.136-.272-1.221-2.943-1.675-4.007-.436-1.061-.885-.926-1.221-.926-.312-.027-.674-.027-1.037-.027a2.048,2.048,0,0,0-1.448.652,6.064,6.064,0,0,0-1.9,4.5c0,2.643,1.944,5.2,2.214,5.586.271.354,3.824,5.8,9.264,8.147,1.3.545,2.307.872,3.1,1.143a7.515,7.515,0,0,0,3.415.22c1.043-.165,3.21-1.31,3.662-2.59a4.5,4.5,0,0,0,.327-2.588c-.134-.245-.49-.381-1.035-.627m-9.892,13.52h-.029A18.171,18.171,0,0,1,12.7,37l-.654-.389L5.231,38.383l1.826-6.621-.434-.681A18.015,18.015,0,0,1,34.681,8.857a17.779,17.779,0,0,1,5.284,12.7A18.038,18.038,0,0,1,21.919,39.509M37.273,6.265A22.055,22.055,0,0,0,21.879,0a21.6,21.6,0,0,0-18.8,32.4L0,43.594l11.507-3a21.91,21.91,0,0,0,10.372,2.628h.011a21.688,21.688,0,0,0,21.7-21.608A21.423,21.423,0,0,0,37.246,6.336"/></svg>